<mxfile host="app.diagrams.net" modified="2023-09-23T14:32:49.375Z" agent="Mozilla/5.0 (Windows NT 10.0; Win64; x64) AppleWebKit/537.36 (KHTML, like Gecko) Chrome/116.0.0.0 Safari/537.36" version="21.8.1" etag="W2k2Sn8pZkzd-Rhl2ZD-" type="device">
  <diagram id="1cee9afd-dcdd-cf27-cb82-50d77dad4855" name="Page-1">
    <mxGraphModel dx="1500" dy="830" grid="1" gridSize="10" guides="1" tooltips="1" connect="1" arrows="1" fold="1" page="1" pageScale="1" pageWidth="850" pageHeight="1100" math="0" shadow="0">
      <root>
        <mxCell id="0" />
        <mxCell id="1" parent="0" />
        <mxCell id="c1cb8d76720eaeb-1" value="Add a habit" style="ellipse;whiteSpace=wrap;html=1;fillColor=#FF8000;strokeColor=#000066;fontColor=#000099;" parent="1" vertex="1">
          <mxGeometry x="245" y="75" width="120" height="80" as="geometry" />
        </mxCell>
        <mxCell id="c1cb8d76720eaeb-2" value="Delete a habit" style="ellipse;whiteSpace=wrap;html=1;fillColor=#FF8000;strokeColor=#000066;fontColor=#000099;" parent="1" vertex="1">
          <mxGeometry x="245" y="165" width="120" height="80" as="geometry" />
        </mxCell>
        <mxCell id="c1cb8d76720eaeb-5" value="Update habit history" style="ellipse;whiteSpace=wrap;html=1;fillColor=#FF8000;strokeColor=#000066;fontColor=#000099;" parent="1" vertex="1">
          <mxGeometry x="475" y="85" width="120" height="80" as="geometry" />
        </mxCell>
        <mxCell id="c1cb8d76720eaeb-6" value="View habit history" style="ellipse;whiteSpace=wrap;html=1;fillColor=#FF8000;strokeColor=#000066;fontColor=#000099;" parent="1" vertex="1">
          <mxGeometry x="245" y="435" width="120" height="80" as="geometry" />
        </mxCell>
        <mxCell id="c1cb8d76720eaeb-7" value="View one user&#39;s habits" style="ellipse;whiteSpace=wrap;html=1;fillColor=#FF8000;strokeColor=#000066;fontColor=#000099;" parent="1" vertex="1">
          <mxGeometry x="245" y="555" width="120" height="80" as="geometry" />
        </mxCell>
        <mxCell id="c1cb8d76720eaeb-8" value="View single habit check-in" style="ellipse;whiteSpace=wrap;html=1;fillColor=#FF8000;strokeColor=#000066;fontColor=#000099;" parent="1" vertex="1">
          <mxGeometry x="475" y="385" width="120" height="80" as="geometry" />
        </mxCell>
        <mxCell id="c1cb8d76720eaeb-9" value="List all users" style="ellipse;whiteSpace=wrap;html=1;fillColor=#FF8000;strokeColor=#000066;fontColor=#000099;" parent="1" vertex="1">
          <mxGeometry x="475" y="555" width="120" height="80" as="geometry" />
        </mxCell>
        <mxCell id="c1cb8d76720eaeb-10" style="html=1;exitX=1;exitY=0.3333333333333333;exitPerimeter=0;entryX=0;entryY=0.5;jettySize=auto;orthogonalLoop=1;fillColor=#f8cecc;strokeColor=#FF8000;curved=1;fontColor=#000099;" parent="1" source="c1cb8d76720eaeb-15" target="c1cb8d76720eaeb-1" edge="1">
          <mxGeometry relative="1" as="geometry" />
        </mxCell>
        <mxCell id="c1cb8d76720eaeb-11" style="html=1;exitX=1;exitY=0.3333333333333333;exitPerimeter=0;entryX=0;entryY=0.5;jettySize=auto;orthogonalLoop=1;curved=1;fontColor=#000099;strokeColor=#FF8000;" parent="1" source="c1cb8d76720eaeb-15" target="c1cb8d76720eaeb-2" edge="1">
          <mxGeometry relative="1" as="geometry" />
        </mxCell>
        <mxCell id="c1cb8d76720eaeb-12" style="rounded=0;html=1;exitX=1;exitY=0.3333333333333333;exitPerimeter=0;entryX=0;entryY=0.5;jettySize=auto;orthogonalLoop=1;fontColor=#000099;strokeColor=#FF8000;" parent="1" source="c1cb8d76720eaeb-15" target="c1cb8d76720eaeb-26" edge="1">
          <mxGeometry relative="1" as="geometry" />
        </mxCell>
        <mxCell id="c1cb8d76720eaeb-14" style="edgeStyle=none;curved=1;html=1;exitX=1;exitY=0.3333333333333333;exitPerimeter=0;jettySize=auto;orthogonalLoop=1;strokeColor=#FF8000;entryX=0;entryY=0.5;fontColor=#000099;" parent="1" source="c1cb8d76720eaeb-15" target="c1cb8d76720eaeb-6" edge="1">
          <mxGeometry relative="1" as="geometry" />
        </mxCell>
        <mxCell id="c1cb8d76720eaeb-15" value="User" style="shape=umlActor;verticalLabelPosition=bottom;labelBackgroundColor=#ffffff;verticalAlign=top;html=1;strokeWidth=4;fillColor=#FF8000;strokeColor=#000066;fontColor=#000099;" parent="1" vertex="1">
          <mxGeometry x="60" y="345" width="30" height="60" as="geometry" />
        </mxCell>
        <mxCell id="c1cb8d76720eaeb-17" style="edgeStyle=none;curved=1;html=1;exitX=0;exitY=0.3333333333333333;exitPerimeter=0;entryX=1;entryY=0.5;jettySize=auto;orthogonalLoop=1;strokeColor=#FF8000;fontColor=#000099;" parent="1" source="c1cb8d76720eaeb-20" target="c1cb8d76720eaeb-26" edge="1">
          <mxGeometry relative="1" as="geometry" />
        </mxCell>
        <mxCell id="c1cb8d76720eaeb-18" style="edgeStyle=none;html=1;exitX=0;exitY=0.3333333333333333;exitPerimeter=0;entryX=1;entryY=1;jettySize=auto;orthogonalLoop=1;strokeColor=#FF8000;rounded=1;fontColor=#000099;" parent="1" source="c1cb8d76720eaeb-20" target="c1cb8d76720eaeb-6" edge="1">
          <mxGeometry relative="1" as="geometry">
            <Array as="points">
              <mxPoint x="620" y="470" />
              <mxPoint x="590" y="490" />
            </Array>
          </mxGeometry>
        </mxCell>
        <mxCell id="c1cb8d76720eaeb-19" style="edgeStyle=none;rounded=1;html=1;exitX=0;exitY=0.3333333333333333;exitPerimeter=0;entryX=1;entryY=0.5;jettySize=auto;orthogonalLoop=1;strokeColor=#FF8000;fontSize=14;fontColor=#000099;" parent="1" source="c1cb8d76720eaeb-20" target="c1cb8d76720eaeb-9" edge="1">
          <mxGeometry relative="1" as="geometry">
            <Array as="points" />
          </mxGeometry>
        </mxCell>
        <mxCell id="c1cb8d76720eaeb-20" value="Coach" style="shape=umlActor;verticalLabelPosition=bottom;labelBackgroundColor=#ffffff;verticalAlign=top;html=1;strokeWidth=4;fillColor=#FF8000;strokeColor=#000066;fontColor=#000099;" parent="1" vertex="1">
          <mxGeometry x="710" y="315" width="30" height="60" as="geometry" />
        </mxCell>
        <mxCell id="c1cb8d76720eaeb-21" value="&amp;lt;&amp;lt; extend &amp;gt;&amp;gt;" style="endArrow=open;endSize=12;dashed=1;html=1;exitX=0;exitY=0.5;entryX=1;entryY=0.5;fontColor=#000099;strokeColor=#FF8000;" parent="1" source="c1cb8d76720eaeb-8" target="c1cb8d76720eaeb-6" edge="1">
          <mxGeometry width="160" relative="1" as="geometry">
            <mxPoint x="495.33333333333326" y="305.33333333333326" as="sourcePoint" />
            <mxPoint x="375.33333333333326" y="305.33333333333326" as="targetPoint" />
          </mxGeometry>
        </mxCell>
        <mxCell id="c1cb8d76720eaeb-22" value="Habit tracker - Use-case Diagram" style="shape=umlFrame;whiteSpace=wrap;html=1;strokeWidth=1;fillColor=none;width=410;height=20;fontColor=#000099;strokeColor=#000066;" parent="1" vertex="1">
          <mxGeometry x="210" y="30" width="410" height="610" as="geometry" />
        </mxCell>
        <mxCell id="c1cb8d76720eaeb-24" value="&amp;lt;&amp;lt; extend &amp;gt;&amp;gt;" style="endArrow=open;endSize=12;dashed=1;html=1;entryX=0.5;entryY=0;fontColor=#000099;strokeColor=#FF8000;" parent="1" target="c1cb8d76720eaeb-8" edge="1">
          <mxGeometry x="0.2727" y="10" width="160" relative="1" as="geometry">
            <mxPoint x="535" y="250" as="sourcePoint" />
            <mxPoint x="555" y="175" as="targetPoint" />
            <mxPoint as="offset" />
          </mxGeometry>
        </mxCell>
        <mxCell id="c1cb8d76720eaeb-26" value="List habits" style="ellipse;whiteSpace=wrap;html=1;fillColor=#FF8000;strokeColor=#000066;fontColor=#000099;" parent="1" vertex="1">
          <mxGeometry x="245" y="305" width="120" height="80" as="geometry" />
        </mxCell>
        <mxCell id="c1cb8d76720eaeb-27" value="&amp;lt;&amp;lt; include &amp;gt;&amp;gt;" style="endArrow=open;endSize=12;dashed=1;html=1;exitX=1;exitY=0.5;entryX=0;entryY=0.5;fontColor=#000099;strokeColor=#FF8000;" parent="1" source="c1cb8d76720eaeb-2" target="c1cb8d76720eaeb-5" edge="1">
          <mxGeometry width="160" relative="1" as="geometry">
            <mxPoint x="357" y="277" as="sourcePoint" />
            <mxPoint x="513" y="163" as="targetPoint" />
          </mxGeometry>
        </mxCell>
        <mxCell id="c1cb8d76720eaeb-28" value="&amp;lt;&amp;lt; include &amp;gt;&amp;gt;" style="endArrow=open;endSize=12;dashed=1;html=1;exitX=1;exitY=0.5;entryX=0;entryY=0;fontColor=#000099;strokeColor=#FF8000;" parent="1" source="c1cb8d76720eaeb-1" target="c1cb8d76720eaeb-5" edge="1">
          <mxGeometry width="160" relative="1" as="geometry">
            <mxPoint x="375" y="215" as="sourcePoint" />
            <mxPoint x="495" y="135" as="targetPoint" />
          </mxGeometry>
        </mxCell>
        <mxCell id="c1cb8d76720eaeb-29" value="&amp;lt;&amp;lt; include &amp;gt;&amp;gt;" style="endArrow=open;endSize=12;dashed=1;html=1;exitX=0.5;exitY=0;entryX=0.5;entryY=1;fontColor=#000099;strokeColor=#FF8000;" parent="1" target="c1cb8d76720eaeb-5" edge="1">
          <mxGeometry width="160" relative="1" as="geometry">
            <mxPoint x="535" y="255" as="sourcePoint" />
            <mxPoint x="503" y="163" as="targetPoint" />
          </mxGeometry>
        </mxCell>
        <mxCell id="c1cb8d76720eaeb-30" value="&amp;lt;&amp;lt; extend &amp;gt;&amp;gt;" style="endArrow=open;endSize=12;dashed=1;html=1;exitX=1;exitY=0.5;entryX=0;entryY=0.5;fontColor=#000099;strokeColor=#FF8000;" parent="1" source="c1cb8d76720eaeb-7" target="c1cb8d76720eaeb-9" edge="1">
          <mxGeometry width="160" relative="1" as="geometry">
            <mxPoint x="485" y="485" as="sourcePoint" />
            <mxPoint x="375" y="485" as="targetPoint" />
          </mxGeometry>
        </mxCell>
        <mxCell id="c1cb8d76720eaeb-31" value="&amp;lt;&amp;lt; extend &amp;gt;&amp;gt;" style="endArrow=open;endSize=12;dashed=1;html=1;exitX=0.5;exitY=1;entryX=0.5;entryY=0;fontColor=#000099;strokeColor=#FF8000;" parent="1" source="c1cb8d76720eaeb-6" target="c1cb8d76720eaeb-7" edge="1">
          <mxGeometry width="160" relative="1" as="geometry">
            <mxPoint x="375" y="605" as="sourcePoint" />
            <mxPoint x="425" y="565" as="targetPoint" />
          </mxGeometry>
        </mxCell>
        <mxCell id="udzRNJWKly56UZ1J0IEx-1" value="Habbit Mangement System" style="rounded=0;whiteSpace=wrap;html=1;" vertex="1" parent="1">
          <mxGeometry x="310" y="720" width="230" height="60" as="geometry" />
        </mxCell>
      </root>
    </mxGraphModel>
  </diagram>
</mxfile>
